# Blender 4.3.2
# www.blender.org
mtllib Stonehenge.mtl
o cube
v -25.000000 -2.510318 25.000000
v 25.000000 -2.510318 25.000000
v -25.000000 -2.510322 -25.000000
v 25.000000 -2.510322 -25.000000
v -25.000000 -0.510318 25.000000
v 25.000000 -0.510318 25.000000
v -25.000000 -0.510322 -25.000000
v 25.000000 -0.510322 -25.000000
v -18.546455 0.000001 17.243784
v -15.709900 0.000001 16.267078
v -19.523159 0.000001 14.407228
v -16.686604 0.000001 13.430523
v -18.546455 11.610957 17.243784
v -15.709900 11.610957 16.267078
v -19.523159 11.610957 14.407228
v -16.686604 11.610957 13.430522
v -20.821329 0.000000 5.869416
v -17.984774 0.000000 4.892712
v -21.798033 0.000000 3.032860
v -18.961477 0.000000 2.056156
v -20.821329 11.610956 5.869415
v -17.984774 11.610956 4.892711
v -21.798033 11.610956 3.032859
v -18.961477 11.610956 2.056155
v -21.481453 -0.000000 -6.360814
v -18.628284 -0.000000 -5.433764
v -20.554401 -0.000001 -9.213984
v -17.701233 -0.000001 -8.286933
v -21.481453 11.610955 -6.360815
v -18.628284 11.610956 -5.433765
v -20.554401 11.610955 -9.213984
v -17.701233 11.610955 -8.286934
v -10.330545 -0.000001 -14.053948
v -7.828888 -0.000001 -15.709760
v -11.986357 -0.000001 -16.555607
v -9.484699 -0.000001 -18.211416
v -10.330545 11.610955 -14.053949
v -7.828888 11.610955 -15.709761
v -11.986357 11.610955 -16.555607
v -9.484699 11.610955 -18.211416
v 0.644537 -0.000001 -16.382336
v 3.578980 -0.000001 -15.758600
v 1.268272 -0.000001 -19.316778
v 4.202715 -0.000001 -18.693043
v 0.644537 11.610955 -16.382336
v 3.578980 11.610955 -15.758601
v 1.268272 11.610954 -19.316778
v 4.202715 11.610955 -18.693043
v 15.662943 -0.000000 -6.539488
v 18.617367 -0.000000 -6.018544
v 16.183887 -0.000001 -9.493912
v 19.138311 -0.000001 -8.972967
v 15.662943 11.610955 -6.539489
v 18.617367 11.610956 -6.018545
v 16.183887 11.610955 -9.493913
v 19.138311 11.610955 -8.972968
v 16.869986 0.000001 10.650522
v 19.867130 0.000001 10.781380
v 17.000843 0.000001 7.653377
v 19.997988 0.000001 7.784235
v 16.869986 11.610957 10.650521
v 19.867130 11.610957 10.781379
v 17.000843 11.610957 7.653376
v 19.997988 11.610957 7.784234
v 3.571324 0.000002 23.060509
v 6.521089 0.000002 22.513802
v 3.024617 0.000002 20.110744
v 5.974382 0.000001 19.564037
v 3.571324 11.610958 23.060509
v 6.521089 11.610958 22.513802
v 3.024617 11.610958 20.110744
v 5.974382 11.610958 19.564037
v -8.452109 0.000002 20.262421
v -5.660856 0.000002 21.361923
v -7.352606 0.000001 17.471169
v -4.561353 0.000001 18.570671
v -8.452109 11.610958 20.262421
v -5.660856 11.610958 21.361923
v -7.352606 11.610957 17.471169
v -4.561353 11.610957 18.570671
v -21.304543 12.194491 7.315566
v -17.425549 12.194491 7.078316
v -22.353069 12.194489 -9.827697
v -18.474075 12.194489 -10.064946
v -21.304543 14.194065 7.315566
v -17.425549 14.194065 7.078316
v -22.353069 14.194063 -9.827697
v -18.474075 14.194063 -10.064946
v 16.446222 12.194491 11.209243
v 20.325216 12.194491 10.971993
v 15.187989 12.194489 -9.362674
v 19.066984 12.194489 -9.599923
v 16.446222 14.194065 11.209243
v 20.325216 14.194065 10.971993
v 15.187989 14.194063 -9.362674
v 19.066984 14.194063 -9.599923
v 6.526983 12.194492 23.496675
v 7.301775 12.194492 19.688450
v -20.307636 12.194491 18.037113
v -19.532845 12.194491 14.228887
v 6.526983 14.359742 23.496674
v 7.301775 14.359742 19.688448
v -20.307636 14.359741 18.037111
v -19.532845 14.359741 14.228887
vn -0.0000 -1.0000 -0.0000
vn -0.0000 1.0000 -0.0000
vn -0.0000 -0.0000 1.0000
vn 1.0000 -0.0000 -0.0000
vn -0.0000 -0.0000 -1.0000
vn -1.0000 -0.0000 -0.0000
vn 0.3256 -0.0000 0.9455
vn 0.9455 -0.0000 -0.3256
vn -0.3256 -0.0000 -0.9455
vn -0.9455 -0.0000 0.3256
vn -0.3090 -0.0000 0.9511
vn 0.9511 -0.0000 0.3090
vn 0.3090 -0.0000 -0.9511
vn -0.9511 -0.0000 -0.3090
vn 0.5519 -0.0000 0.8339
vn 0.8339 -0.0000 -0.5519
vn -0.5519 -0.0000 -0.8339
vn -0.8339 -0.0000 0.5519
vn -0.2079 -0.0000 0.9781
vn 0.9781 -0.0000 0.2079
vn 0.2079 -0.0000 -0.9781
vn -0.9781 -0.0000 -0.2079
vn -0.1736 -0.0000 0.9848
vn 0.9848 -0.0000 0.1736
vn 0.1736 -0.0000 -0.9848
vn -0.9848 -0.0000 -0.1736
vn -0.0436 -0.0000 0.9990
vn 0.9990 -0.0000 0.0436
vn 0.0436 -0.0000 -0.9990
vn -0.9990 -0.0000 -0.0436
vn 0.1822 -0.0000 0.9833
vn 0.9833 -0.0000 -0.1822
vn -0.1822 -0.0000 -0.9833
vn -0.9833 -0.0000 0.1822
vn -0.3665 -0.0000 0.9304
vn 0.9304 -0.0000 0.3665
vn 0.3665 -0.0000 -0.9304
vn -0.9304 -0.0000 -0.3665
vn 0.0610 -0.0000 0.9981
vn 0.9981 -0.0000 -0.0610
vn -0.0610 -0.0000 -0.9981
vn -0.9981 -0.0000 0.0610
vn 0.9799 -0.0000 0.1994
vn 0.1994 -0.0000 -0.9799
vn -0.9799 -0.0000 -0.1994
vn -0.1994 -0.0000 0.9799
s 0
f 1//1 3//1 4//1
f 4//1 2//1 1//1
f 5//2 6//2 8//2
f 8//2 7//2 5//2
f 1//3 2//3 6//3
f 6//3 5//3 1//3
f 2//4 4//4 8//4
f 8//4 6//4 2//4
f 4//5 3//5 7//5
f 7//5 8//5 4//5
f 3//6 1//6 5//6
f 5//6 7//6 3//6
f 9//1 11//1 12//1
f 12//1 10//1 9//1
f 13//2 14//2 16//2
f 16//2 15//2 13//2
f 9//7 10//7 14//7
f 14//7 13//7 9//7
f 10//8 12//8 16//8
f 16//8 14//8 10//8
f 12//9 11//9 15//9
f 15//9 16//9 12//9
f 11//10 9//10 13//10
f 13//10 15//10 11//10
f 17//1 19//1 20//1
f 20//1 18//1 17//1
f 21//2 22//2 24//2
f 24//2 23//2 21//2
f 17//7 18//7 22//7
f 22//7 21//7 17//7
f 18//8 20//8 24//8
f 24//8 22//8 18//8
f 20//9 19//9 23//9
f 23//9 24//9 20//9
f 19//10 17//10 21//10
f 21//10 23//10 19//10
f 25//1 27//1 28//1
f 28//1 26//1 25//1
f 29//2 30//2 32//2
f 32//2 31//2 29//2
f 25//11 26//11 30//11
f 30//11 29//11 25//11
f 26//12 28//12 32//12
f 32//12 30//12 26//12
f 28//13 27//13 31//13
f 31//13 32//13 28//13
f 27//14 25//14 29//14
f 29//14 31//14 27//14
f 33//1 35//1 36//1
f 36//1 34//1 33//1
f 37//2 38//2 40//2
f 40//2 39//2 37//2
f 33//15 34//15 38//15
f 38//15 37//15 33//15
f 34//16 36//16 40//16
f 40//16 38//16 34//16
f 36//17 35//17 39//17
f 39//17 40//17 36//17
f 35//18 33//18 37//18
f 37//18 39//18 35//18
f 41//1 43//1 44//1
f 44//1 42//1 41//1
f 45//2 46//2 48//2
f 48//2 47//2 45//2
f 41//19 42//19 46//19
f 46//19 45//19 41//19
f 42//20 44//20 48//20
f 48//20 46//20 42//20
f 44//21 43//21 47//21
f 47//21 48//21 44//21
f 43//22 41//22 45//22
f 45//22 47//22 43//22
f 49//1 51//1 52//1
f 52//1 50//1 49//1
f 53//2 54//2 56//2
f 56//2 55//2 53//2
f 49//23 50//23 54//23
f 54//23 53//23 49//23
f 50//24 52//24 56//24
f 56//24 54//24 50//24
f 52//25 51//25 55//25
f 55//25 56//25 52//25
f 51//26 49//26 53//26
f 53//26 55//26 51//26
f 57//1 59//1 60//1
f 60//1 58//1 57//1
f 61//2 62//2 64//2
f 64//2 63//2 61//2
f 57//27 58//27 62//27
f 62//27 61//27 57//27
f 58//28 60//28 64//28
f 64//28 62//28 58//28
f 60//29 59//29 63//29
f 63//29 64//29 60//29
f 59//30 57//30 61//30
f 61//30 63//30 59//30
f 65//1 67//1 68//1
f 68//1 66//1 65//1
f 69//2 70//2 72//2
f 72//2 71//2 69//2
f 65//31 66//31 70//31
f 70//31 69//31 65//31
f 66//32 68//32 72//32
f 72//32 70//32 66//32
f 68//33 67//33 71//33
f 71//33 72//33 68//33
f 67//34 65//34 69//34
f 69//34 71//34 67//34
f 73//1 75//1 76//1
f 76//1 74//1 73//1
f 77//2 78//2 80//2
f 80//2 79//2 77//2
f 73//35 74//35 78//35
f 78//35 77//35 73//35
f 74//36 76//36 80//36
f 80//36 78//36 74//36
f 76//37 75//37 79//37
f 79//37 80//37 76//37
f 75//38 73//38 77//38
f 77//38 79//38 75//38
f 81//1 83//1 84//1
f 84//1 82//1 81//1
f 85//2 86//2 88//2
f 88//2 87//2 85//2
f 81//39 82//39 86//39
f 86//39 85//39 81//39
f 82//40 84//40 88//40
f 88//40 86//40 82//40
f 84//41 83//41 87//41
f 87//41 88//41 84//41
f 83//42 81//42 85//42
f 85//42 87//42 83//42
f 89//1 91//1 92//1
f 92//1 90//1 89//1
f 93//2 94//2 96//2
f 96//2 95//2 93//2
f 89//39 90//39 94//39
f 94//39 93//39 89//39
f 90//40 92//40 96//40
f 96//40 94//40 90//40
f 92//41 91//41 95//41
f 95//41 96//41 92//41
f 91//42 89//42 93//42
f 93//42 95//42 91//42
f 97//1 99//1 100//1
f 100//1 98//1 97//1
f 101//2 102//2 104//2
f 104//2 103//2 101//2
f 97//43 98//43 102//43
f 102//43 101//43 97//43
f 98//44 100//44 104//44
f 104//44 102//44 98//44
f 100//45 99//45 103//45
f 103//45 104//45 100//45
f 99//46 97//46 101//46
f 101//46 103//46 99//46
